<svg xmlns="http://www.w3.org/2000/svg" viewBox="0 0 64 64">
  <title>ISC.exe elephant favicon</title>
  <path fill="#000" d="M22 13 11 16 8 27v9l4 3 5-2v6c0 4 3 7 7 7h4v-4h-2c-2 0-3-1-3-3V29l7-7-8-9Zm-8 13 3 3h3l3-3-2-5h-5l-2 5Zm17-4 10-5h9l6 10v23h-7V35l-4-6h-4v21h-7V31l-3-5Zm-6 11h8v17h-8zm24 1h7v16h-7z"/>
  <path fill="#000" d="M8 27c0 8 6 14 13 14h2v-6h-2c-4 0-7-4-7-8H8Z"/>
  <path fill="#000" d="M8 27v11c0 6 4 10 10 10h2v-4h-2c-3 0-6-3-6-6v-1l4-2v-8H8Z" opacity=".96"/>
  <path fill="#fff" d="M10.5 22.5h3v3h-3z"/>
  <path fill="#fff" d="M7 33c4 0 6 2 7 5-3 1-7 0-9-2 0-1 1-2 2-3Z"/>
</svg>
